<?xml version="1.0" encoding="UTF-8" standalone="no"?>
<svg
   width="100%"
   height="100%"
   viewBox="0 0 130 131"
   version="1.1"
   xml:space="preserve"
   style="fill-rule:evenodd;clip-rule:evenodd;stroke-linejoin:round;stroke-miterlimit:2;"
   id="svg1"
   sodipodi:docname="1.svg"
   inkscape:version="1.3.2 (091e20e, 2023-11-25, custom)"
   xmlns:inkscape="http://www.inkscape.org/namespaces/inkscape"
   xmlns:sodipodi="http://sodipodi.sourceforge.net/DTD/sodipodi-0.dtd"
   xmlns="http://www.w3.org/2000/svg"
   xmlns:svg="http://www.w3.org/2000/svg"><defs
   id="defs1" /><sodipodi:namedview
   id="namedview1"
   pagecolor="#ffffff"
   bordercolor="#000000"
   borderopacity="0.25"
   inkscape:showpageshadow="2"
   inkscape:pageopacity="0.0"
   inkscape:pagecheckerboard="0"
   inkscape:deskcolor="#d1d1d1"
   inkscape:zoom="5.4307692"
   inkscape:cx="64.907932"
   inkscape:cy="65.552408"
   inkscape:window-width="1450"
   inkscape:window-height="1020"
   inkscape:window-x="232"
   inkscape:window-y="14"
   inkscape:window-maximized="0"
   inkscape:current-layer="g1" />
    <g
   transform="matrix(1,0,0,1,-58.5,2.16063e-05)"
   id="g1">
        <g
   id="layer1">
            <path
   id="path1"
   d="M155.723,129.948C142.588,128.002 132.875,116.369 132.875,102.583C132.875,72.419 173.958,64.126 186.207,91.817C188.767,97.604 188.773,107.553 186.22,113.297C180.816,125.459 168.993,131.914 155.722,129.948L155.723,129.948ZM164.805,111.717L165.11,107.083L169.355,107.083C174.115,107.083 176,105.759 176,102.418C176,99.651 173.31,98.083 168.566,98.083C165.031,98.083 165,98.043 165,93.783C165,89.039 163.686,87.083 160.5,87.083C157.314,87.083 156,89.039 156,93.783C156,98.045 155.969,98.083 152.434,98.083C147.69,98.083 145,99.651 145,102.418C145,105.768 146.888,107.083 151.7,107.083L156,107.083L156,111.526C156,114.972 156.494,116.315 158.204,117.513C161.697,119.959 164.42,117.569 164.805,111.717L164.805,111.717ZM66.218,121.419C64.413,120.53 61.938,118.403 60.718,116.692C58.505,113.59 58.5,113.473 58.5,68.083C58.5,24.161 58.569,22.488 60.5,19.847C63.984,15.081 69.53,13.083 79.266,13.083L87.9,13.083L88.2,7.436C88.416,3.373 88.991,1.481 90.25,0.691C93.461,-1.324 95.464,1.11 95.8,7.436L96.1,13.083L144.9,13.083L145.2,7.436C145.416,3.373 145.991,1.481 147.25,0.691C150.442,-1.312 152.464,1.112 152.797,7.344L153.094,12.898L162.977,13.24C173.893,13.618 176.441,14.741 180.75,21.072C182.937,24.286 183,25.086 183,49.73C183,63.674 182.769,75.083 182.486,75.083C182.203,75.083 180.409,74.07 178.498,72.833L175.025,70.583L175,48.083L66,48.083L66,110.734L68.314,112.908C70.578,115.035 71.251,115.083 99.064,115.091L127.5,115.096L131.834,123.08L100.667,123.057C74.007,123.04 69.025,122.8 66.218,121.417L66.218,121.419Z"
   style="fill-rule:nonzero;fill:#6a9bc3;fill-opacity:1" />
        </g>
    </g>
</svg>
