<?xml version="1.0" encoding="UTF-8" standalone="no"?>
<svg
   width="100%"
   height="100%"
   viewBox="0 0 132 132"
   version="1.1"
   xml:space="preserve"
   style="fill-rule:evenodd;clip-rule:evenodd;stroke-linejoin:round;stroke-miterlimit:2;"
   id="svg1"
   sodipodi:docname="3.svg"
   inkscape:version="1.3.2 (091e20e, 2023-11-25, custom)"
   xmlns:inkscape="http://www.inkscape.org/namespaces/inkscape"
   xmlns:sodipodi="http://sodipodi.sourceforge.net/DTD/sodipodi-0.dtd"
   xmlns="http://www.w3.org/2000/svg"
   xmlns:svg="http://www.w3.org/2000/svg"><defs
   id="defs1" /><sodipodi:namedview
   id="namedview1"
   pagecolor="#ffffff"
   bordercolor="#000000"
   borderopacity="0.25"
   inkscape:showpageshadow="2"
   inkscape:pageopacity="0.0"
   inkscape:pagecheckerboard="0"
   inkscape:deskcolor="#d1d1d1"
   inkscape:zoom="5.8863636"
   inkscape:cx="65.915058"
   inkscape:cy="66"
   inkscape:window-width="1920"
   inkscape:window-height="991"
   inkscape:window-x="-9"
   inkscape:window-y="-9"
   inkscape:window-maximized="1"
   inkscape:current-layer="svg1" />
    <g
   transform="matrix(1,0,0,1,-411.54,-358.083)"
   id="g1">
        <g
   id="layer1">
            <path
   id="path1"
   d="M494.286,488.69C483.935,485.312 474.775,477.202 470.321,467.472L467.821,462.012L463.78,465.662C461.558,467.67 457.278,470.44 454.268,471.817C449.474,474.012 447.787,474.267 440.648,473.875C431.085,473.35 426.537,471.348 420.298,464.915C414.226,458.655 411.557,452.155 411.54,443.583C411.514,430.73 412.858,428.878 447.301,394.307C482.238,359.241 483.83,358.083 497.072,358.083C503.872,358.083 505.601,358.484 511.132,361.347C522.295,367.126 528.841,378.869 527.73,391.124C527.071,398.394 524.377,404.345 519.015,410.376C516.671,413.012 514.921,415.28 515.127,415.415C515.332,415.551 517.945,416.769 520.934,418.122C532.271,423.255 541.284,435.941 542.611,448.631C544.239,464.208 534.883,480.122 520.12,486.888C513.317,490.005 500.958,490.867 494.286,488.69ZM514.931,480.201C517.656,479.165 521.03,477.418 522.429,476.317L524.974,474.315L521.864,468.449C520.154,465.222 517.278,460.558 515.474,458.083C511.816,453.064 501.288,442.749 496.156,439.154L492.811,436.812L483.882,445.697C473.954,455.577 473.986,455.467 478.153,465.083C481.367,472.501 488.448,478.537 497,481.147C501.589,482.548 509.909,482.109 514.931,480.201ZM532.639,463.333C534.894,458.257 534.878,445.874 532.611,440.765C528.738,432.038 517.047,423.117 509.453,423.092C507.197,423.087 505.379,424.139 502.453,427.149L498.5,431.216L501.5,433.299C507.727,437.625 522.605,453.8 526.382,460.35C528.517,464.053 530.423,467.083 530.618,467.083C530.813,467.083 531.723,465.395 532.639,463.333L532.639,463.333ZM452.434,464.108C454.696,463.009 462.485,456.13 469.987,448.606L483.474,435.08L467.499,419.081C458.712,410.282 451.022,403.083 450.409,403.083C448.47,403.083 423.532,429.403 421.51,433.583C416.105,444.759 421.605,459.552 433,464.488C438.083,466.69 447.498,466.505 452.434,464.108L452.434,464.108Z"
   style="fill-rule:nonzero;fill:#c8c84a;fill-opacity:1" />
        </g>
    </g>
</svg>
