<?xml version="1.0" encoding="UTF-8" standalone="no"?>
<svg
   width="100%"
   height="100%"
   viewBox="0 0 116 129"
   version="1.1"
   xml:space="preserve"
   style="fill-rule:evenodd;clip-rule:evenodd;stroke-linejoin:round;stroke-miterlimit:2;"
   id="svg1"
   sodipodi:docname="2.svg"
   inkscape:version="1.3.2 (091e20e, 2023-11-25, custom)"
   xmlns:inkscape="http://www.inkscape.org/namespaces/inkscape"
   xmlns:sodipodi="http://sodipodi.sourceforge.net/DTD/sodipodi-0.dtd"
   xmlns="http://www.w3.org/2000/svg"
   xmlns:svg="http://www.w3.org/2000/svg"><defs
   id="defs1" /><sodipodi:namedview
   id="namedview1"
   pagecolor="#ffffff"
   bordercolor="#000000"
   borderopacity="0.25"
   inkscape:showpageshadow="2"
   inkscape:pageopacity="0.0"
   inkscape:pagecheckerboard="0"
   inkscape:deskcolor="#d1d1d1"
   inkscape:zoom="6.0232558"
   inkscape:cx="58.025097"
   inkscape:cy="64.5"
   inkscape:window-width="1920"
   inkscape:window-height="991"
   inkscape:window-x="-9"
   inkscape:window-y="-9"
   inkscape:window-maximized="1"
   inkscape:current-layer="svg1" />
    <g
   transform="matrix(1,0,0,1,-65.0913,-358.195)"
   id="g1"
   inkscape:label="g1">
        <g
   id="layer1">
            <path
   id="path1"
   d="M76.5,485.918C67.051,480.705 62.66,469.62 66.45,460.549C67.247,458.64 75.206,447.742 84.136,436.331C93.066,424.919 101.188,414.509 102.186,413.198C103.743,411.151 104,408.779 104,396.471C104,382.199 103.988,382.12 101.449,380.457C98.118,378.275 96,374.061 96,369.618C96,366.954 96.865,365.109 99.421,362.318L102.842,358.583L120.171,358.257C130.796,358.057 138.922,358.354 141.176,359.025C146.184,360.515 150.001,365.225 149.996,369.909C149.992,374.242 146.992,379.633 144.069,380.561C142.098,381.186 142,381.929 142,396.232L142,411.248L160.133,434.362C170.107,447.075 178.882,458.948 179.633,460.747C183.45,469.882 177.98,482.507 168.685,486.019C164.719,487.517 79.229,487.424 76.5,485.918L76.5,485.918ZM169.578,475.847C172.243,472.938 173,471.254 173,468.237C173,463.488 172.251,462.356 151.999,436.523C143.35,425.49 135.762,415.507 135.137,414.338C133.961,412.141 133.508,381.516 134.592,377.479C134.902,376.323 136.583,374.748 138.327,373.979C141.78,372.458 142.858,369.821 140.96,367.535C139.197,365.41 106.808,365.403 105.046,367.529C103.161,369.8 104.154,373.535 106.741,373.902C111.344,374.556 112,377.234 112,395.372C112,406.198 111.587,412.996 110.843,414.4C110.207,415.601 101.95,426.484 92.495,438.584C83.04,450.684 74.786,461.567 74.152,462.768C71.645,467.521 73.488,474.731 77.94,477.584C81.328,479.755 84.903,479.921 124.828,479.755L166.156,479.584L169.578,475.847ZM84.066,468.207C82.893,466.014 83.954,464.307 98.749,444.583L108.5,431.583L137.5,431.583L147.274,444.583C161.897,464.032 163.116,465.997 161.934,468.207C160.979,469.991 159.069,470.083 123,470.083C86.931,470.083 85.021,469.991 84.066,468.207Z"
   style="fill-rule:nonzero;fill:#5a9e5a;fill-opacity:1" />
        </g>
    </g>
</svg>
