<?xml version="1.0" encoding="UTF-8" standalone="no"?>
<!DOCTYPE svg PUBLIC "-//W3C//DTD SVG 1.1//EN" "http://www.w3.org/Graphics/SVG/1.1/DTD/svg11.dtd">
<svg width="100%" height="100%" viewBox="0 0 1500 1500" version="1.1" xmlns="http://www.w3.org/2000/svg" xmlns:xlink="http://www.w3.org/1999/xlink" xml:space="preserve" xmlns:serif="http://www.serif.com/" style="fill-rule:evenodd;clip-rule:evenodd;stroke-linejoin:round;stroke-miterlimit:2;">
    <g transform="matrix(1,0,0,1,-900.437,-525.437)">
        <g>
            <g transform="matrix(16.5562,0,0,16.5562,1650,1275)">
                <g transform="matrix(1,0,0,1,-33.3333,-33.3333)">
                    <clipPath id="_clip1">
                        <rect x="0" y="0" width="66.667" height="66.667"/>
                    </clipPath>
                    <g clip-path="url(#_clip1)">
                        <g transform="matrix(4.16667,0,0,4.16667,0,0)">
                            <path d="M3,0L13,0C14.097,-0 15,0.903 15,2L15,14C15,15.097 14.097,16 13,16L3,16C1.903,16 1,15.097 1,14L1,13L2,13L2,14C2,14.549 2.451,15 3,15L13,15C13.549,15 14,14.549 14,14L14,2C14,1.451 13.549,1 13,1L3,1C2.451,1 2,1.451 2,2L2,3L1,3L1,2C1,0.903 1.903,0 3,0" style="fill-rule:nonzero;"/>
                        </g>
                        <g transform="matrix(4.16667,0,0,4.16667,0,0)">
                            <path d="M1,5L1,4.5C1,4.226 1.226,4 1.5,4C1.774,4 2,4.226 2,4.5L2,5L2.5,5C2.774,5 3,5.226 3,5.5C3,5.774 2.774,6 2.5,6L0.5,6C0.226,6 0,5.774 0,5.5C-0,5.226 0.226,5 0.5,5L1,5ZM1,8L1,7.5C1,7.226 1.226,7 1.5,7C1.774,7 2,7.226 2,7.5L2,8L2.5,8C2.774,8 3,8.226 3,8.5C3,8.774 2.774,9 2.5,9L0.5,9C0.226,9 0,8.774 0,8.5C-0,8.226 0.226,8 0.5,8L1,8ZM1,11L1,10.5C1,10.226 1.226,10 1.5,10C1.774,10 2,10.226 2,10.5L2,11L2.5,11C2.774,11 3,11.226 3,11.5C3,11.774 2.774,12 2.5,12L0.5,12C0.226,12 0,11.774 0,11.5C-0,11.226 0.226,11 0.5,11L1,11Z" style="fill-rule:nonzero;"/>
                        </g>
                    </g>
                </g>
            </g>
            <g transform="matrix(9,0,0,9,1650,1275)">
                <g transform="matrix(1,0,0,1,-33.3333,-33.3333)">
                    <clipPath id="_clip2">
                        <rect x="0" y="0" width="66.667" height="66.667"/>
                    </clipPath>
                    <g clip-path="url(#_clip2)">
                        <g transform="matrix(4.16667,0,0,4.16667,0,0)">
                            <path d="M1.885,0.511C2.212,0.184 2.656,0.001 3.118,0.001C3.656,0.001 4.165,0.25 4.495,0.674L6.29,2.98C6.619,3.403 6.735,3.954 6.605,4.474L6.058,6.664C6.001,6.894 6.069,7.139 6.236,7.307L8.693,9.764C8.862,9.932 9.106,9.999 9.337,9.942L11.526,9.395C12.046,9.266 12.597,9.382 13.02,9.71L15.326,11.504C16.155,12.149 16.231,13.374 15.489,14.115L14.455,15.149C13.715,15.889 12.609,16.214 11.578,15.851C8.939,14.924 6.542,13.413 4.568,11.431C2.586,9.457 1.076,7.061 0.148,4.422C-0.214,3.392 0.111,2.285 0.851,1.545L1.885,0.511Z"/>
                        </g>
                    </g>
                </g>
            </g>
        </g>
    </g>
</svg>
