<?xml version="1.0" encoding="UTF-8" standalone="no"?>
<!DOCTYPE svg PUBLIC "-//W3C//DTD SVG 1.1//EN" "http://www.w3.org/Graphics/SVG/1.1/DTD/svg11.dtd">
<svg width="100%" height="100%" viewBox="0 0 1500 1500" version="1.1" xmlns="http://www.w3.org/2000/svg" xmlns:xlink="http://www.w3.org/1999/xlink" xml:space="preserve" xmlns:serif="http://www.serif.com/" style="fill-rule:evenodd;clip-rule:evenodd;stroke-linejoin:round;stroke-miterlimit:2;">
    <g transform="matrix(1,0,0,1,-900.437,-525.437)">
        <g transform="matrix(22.4869,0,0,22.4869,1650,1275)">
            <g transform="matrix(1,0,0,1,-33.3333,-33.3333)">
                <g transform="matrix(4.16667,0,0,4.16667,0,0)">
                    <path d="M3,14C3,14 2,14 2,13C2,12 3,9 8,9C13,9 14,12 14,13C14,14 13,14 13,14L3,14ZM8,8C9.646,8 11,6.646 11,5C11,3.354 9.646,2 8,2C6.354,2 5,3.354 5,5C5,6.646 6.354,8 8,8" style="fill-rule:nonzero;"/>
                </g>
            </g>
        </g>
    </g>
</svg>
